<?xml version="1.0" encoding="UTF-8" standalone="no"?>
<svg width="40px" height="40px" viewBox="0 0 40 40" version="1.1" xmlns="http://www.w3.org/2000/svg" xmlns:xlink="http://www.w3.org/1999/xlink">
    <!-- Generator: Sketch 48.2 (47327) - http://www.bohemiancoding.com/sketch -->
    <title>audio</title>
    <desc>Created with Sketch.</desc>
    <defs></defs>
    <g id="Page-1" stroke="none" stroke-width="1" fill="none" fill-rule="evenodd">
        <g id="audio" fill="#ffffff">
            <path d="M18.601227,32.1656442 C18.601227,32.5582842 18.466259,32.8895692 18.196319,33.1595092 C17.926379,33.4294492 17.6073638,33.5644172 17.2392638,33.5644172 C17.0429438,33.5644172 16.8650315,33.5276077 16.7055215,33.4539877 C16.5460115,33.3803677 16.3926388,33.2822092 16.2453988,33.1595092 L9.06748466,25.9447853 L3.39877301,25.9447853 C3.00613301,25.9447853 2.67484798,25.8098173 2.40490798,25.5398773 C2.13496798,25.2699373 2,24.9386523 2,24.5460123 L2,16.2638037 C2,15.8711637 2.13496798,15.5398787 2.40490798,15.2699387 C2.67484798,14.9999987 3.00613301,14.8650307 3.39877301,14.8650307 L9.06748466,14.8650307 L16.2453988,7.68711656 C16.3926388,7.53987656 16.5460115,7.42944822 16.7055215,7.35582822 C16.8650315,7.28220822 17.0429438,7.24539877 17.2392638,7.24539877 C17.6073638,7.24539877 17.926379,7.38650166 18.196319,7.66871166 C18.466259,7.95092166 18.601227,8.27607178 18.601227,8.64417178 L18.601227,32.1656442 Z M23.5705521,25.5030675 C23.4723921,25.5521475 23.3803685,25.582822 23.2944785,25.595092 C23.2085885,25.607362 23.1165649,25.6134969 23.0184049,25.6134969 C22.6503049,25.6134969 22.3312897,25.478529 22.0613497,25.208589 C21.7914097,24.938649 21.6564417,24.6073639 21.6564417,24.2147239 C21.6564417,23.4049039 22.0736155,22.8957066 22.9079755,22.6871166 C23.7423355,22.4785266 24.1595092,21.7239329 24.1595092,20.4233129 C24.1595092,19.0981529 23.7423355,18.3374243 22.9079755,18.1411043 C22.0736155,17.9447843 21.6564417,17.429452 21.6564417,16.595092 C21.6564417,16.226992 21.7914097,15.9079768 22.0613497,15.6380368 C22.3312897,15.3680968 22.6503049,15.2331288 23.0184049,15.2331288 C23.1165649,15.2331288 23.2147234,15.2392637 23.3128834,15.2515337 C23.4110434,15.2638037 23.4969321,15.2944783 23.5705521,15.3435583 C24.5766921,15.7361983 25.3865,16.4110382 26,17.3680982 C26.6135,18.3251582 26.9202454,19.3435529 26.9202454,20.4233129 C26.9202454,21.5030729 26.6196349,22.5153327 26.0184049,23.4601227 C25.4171749,24.4049127 24.6012321,25.0858875 23.5705521,25.5030675 Z M25.7423313,30.6196319 C25.6687113,30.6441719 25.5828226,30.6687115 25.4846626,30.6932515 C25.3865026,30.7177915 25.3006139,30.7300613 25.2269939,30.7300613 C24.8343539,30.7300613 24.5030688,30.5889585 24.2331288,30.3067485 C23.9631888,30.0245385 23.8282209,29.6993883 23.8282209,29.3312883 C23.8282209,29.0368083 23.9018398,28.7852771 24.0490798,28.5766871 C24.1963198,28.3680971 24.4049066,28.1901848 24.6748466,28.0429448 C24.9447866,27.8957048 25.2208575,27.748467 25.5030675,27.601227 C25.7852775,27.453987 26.0490785,27.2822096 26.2944785,27.0858896 C27.3742385,26.3251496 28.2147209,25.3558341 28.8159509,24.1779141 C29.4171809,22.9999941 29.7177914,21.7484729 29.7177914,20.4233129 C29.7177914,19.0981529 29.4171809,17.8466317 28.8159509,16.6687117 C28.2147209,15.4907917 27.3742385,14.5092064 26.2944785,13.7239264 C26.0490785,13.5276064 25.7914124,13.3619639 25.5214724,13.2269939 C25.2515324,13.0920239 24.9693266,12.9386512 24.6748466,12.7668712 C24.4294466,12.6441712 24.2269947,12.4785287 24.0674847,12.2699387 C23.9079747,12.0613487 23.8282209,11.8098174 23.8282209,11.5153374 C23.8282209,11.1226974 23.9631888,10.7914124 24.2331288,10.5214724 C24.5030688,10.2515324 24.822084,10.1165644 25.190184,10.1165644 C25.288344,10.1165644 25.3865026,10.1288342 25.4846626,10.1533742 C25.5828226,10.1779142 25.6687113,10.2024539 25.7423313,10.2269939 C26.7730113,10.6687139 27.7055173,11.2331254 28.5398773,11.9202454 C29.3496973,12.6319054 30.0490768,13.4355783 30.6380368,14.3312883 C31.2269968,15.2269983 31.68098,16.1901789 32,17.2208589 C32.31902,18.2515389 32.4785276,19.3190129 32.4785276,20.4233129 C32.4785276,21.5276129 32.31902,22.5950869 32,23.6257669 C31.68098,24.6564469 31.2269968,25.6196274 30.6380368,26.5153374 C30.0490768,27.4110474 29.3496973,28.2147204 28.5398773,28.9263804 C27.7055173,29.6135004 26.7730113,30.1779119 25.7423313,30.6196319 Z M27.9509202,35.6993865 C27.8527602,35.7239265 27.7607366,35.7484661 27.6748466,35.7730061 C27.5889566,35.7975461 27.496933,35.809816 27.398773,35.809816 C27.006133,35.809816 26.674848,35.6687131 26.404908,35.3865031 C26.134968,35.1042931 26,34.7791429 26,34.4110429 C26,34.0920229 26.0736189,33.8404917 26.2208589,33.6564417 C26.3680989,33.4723917 26.5766858,33.2944794 26.8466258,33.1226994 C26.9938658,33.0490794 27.1533734,32.9754605 27.3251534,32.9018405 C27.4969334,32.8282205 27.656441,32.7546016 27.803681,32.6809816 C28.122701,32.5092016 28.4294464,32.3312893 28.7239264,32.1472393 C29.0184064,31.9631893 29.312882,31.7730071 29.607362,31.5766871 C30.490802,30.9141071 31.2760702,30.1656483 31.9631902,29.3312883 C32.6748502,28.4969283 33.2699363,27.6012318 33.7484663,26.6441718 C34.2269963,25.6871118 34.6012256,24.6809869 34.8711656,23.6257669 C35.1165656,22.5705469 35.2392638,21.4908031 35.2392638,20.3865031 C35.2392638,19.2822031 35.1165656,18.2024593 34.8711656,17.1472393 C34.6012256,16.0920193 34.2269963,15.0858944 33.7484663,14.1288344 C33.2699363,13.1717744 32.6748502,12.2883476 31.9631902,11.4785276 C31.2760702,10.6441676 30.490802,9.89570883 29.607362,9.23312883 C29.312882,9.03680883 29.0184064,8.84662669 28.7239264,8.66257669 C28.4294464,8.47852669 28.122701,8.30061436 27.803681,8.12883436 C27.656441,8.03067436 27.4969334,7.95092055 27.3251534,7.88957055 C27.1533734,7.82822055 26.9938658,7.76073656 26.8466258,7.68711656 C26.5766858,7.51533656 26.3680989,7.33742423 26.2208589,7.15337423 C26.0736189,6.96932423 26,6.71779301 26,6.39877301 C26,6.00613301 26.134968,5.67484798 26.404908,5.40490798 C26.674848,5.13496798 27.006133,5 27.398773,5 C27.472393,5 27.5582817,5.01226982 27.6564417,5.03680982 L27.9509202,5.11042945 C29.4724002,5.77300945 30.8466196,6.63189656 32.0736196,7.68711656 C33.3251596,8.74233656 34.3864987,9.93250871 35.2576687,11.2576687 C36.1288387,12.5828287 36.8098135,14.0183972 37.3006135,15.5644172 C37.7668735,17.1349772 38,18.7423231 38,20.3865031 C38,22.0552231 37.7668735,23.662569 37.3006135,25.208589 C36.8098135,26.779149 36.1288387,28.2269872 35.2576687,29.5521472 C34.3864987,30.8773072 33.3251596,32.0674794 32.0736196,33.1226994 C30.8466196,34.1779194 29.4724002,35.0368065 27.9509202,35.6993865 Z" id="î˜"></path>
        </g>
    </g>
</svg>