<?xml version="1.0" encoding="UTF-8"?>
<svg width="40px" height="40px" viewBox="0 0 40 40" version="1.1" xmlns="http://www.w3.org/2000/svg" xmlns:xlink="http://www.w3.org/1999/xlink">
    <!-- Generator: Sketch 49.2 (51160) - http://www.bohemiancoding.com/sketch -->
    <title>check</title>
    <desc>Created with Sketch.</desc>
    <defs>
        <path d="M16.469,33.863 C16.024,34.308 15.502,34.531 14.905,34.531 C14.307,34.531 13.785,34.308 13.34,33.863 L1.668,22.191 C1.223,21.746 1,21.224 1,20.627 C1,20.029 1.223,19.508 1.668,19.062 L4.656,16.074 C5.078,15.652 5.594,15.441 6.203,15.441 C6.813,15.441 7.328,15.652 7.75,16.074 L14.922,23.246 L32.5,5.633 C32.946,5.211 33.467,5 34.065,5 C34.662,5 35.172,5.211 35.594,5.633 L38.582,8.621 C39.028,9.066 39.25,9.588 39.25,10.185 C39.25,10.783 39.028,11.304 38.582,11.75 L16.469,33.863 Z" id="path-1"></path>
    </defs>
    <g id="check" stroke="none" stroke-width="1" fill="none" fill-rule="evenodd">
        <g id="Fill-1">
            <use fill="#008A00" fill-rule="evenodd" xlink:href="#path-1"></use>
            <path stroke="#FFFFFF" stroke-width="2" d="M14.921308,21.8310945 L31.8127072,4.90661949 C32.4431615,4.31009099 33.2095712,4 34.065,4 C34.927254,4 35.6915967,4.31638317 36.3011068,4.92589322 L39.2883127,7.91310005 C39.9192275,8.54260022 40.25,9.3178715 40.25,10.185 C40.25,11.0524505 39.919775,11.8264386 39.2891068,12.4571068 L17.1761068,34.5701068 C16.5462543,35.1999593 15.7712251,35.531 14.905,35.531 C14.0379655,35.531 13.2628805,35.2000941 12.6328932,34.5701068 L0.960893219,22.8981068 C0.331040748,22.2682543 0,21.4932251 0,20.627 C0,19.760452 0.330490046,18.9867121 0.960893219,18.3548932 L3.94889322,15.3668932 C4.55946405,14.7563224 5.3302106,14.441 6.203,14.441 C7.07647424,14.441 7.84632028,14.7561067 8.45710678,15.3668932 L14.921308,21.8310945 Z"></path>
        </g>
    </g>
</svg>