<?xml version="1.0" encoding="UTF-8" standalone="no"?>
<svg width="40px" height="40px" viewBox="0 0 40 40" version="1.1" xmlns="http://www.w3.org/2000/svg" xmlns:xlink="http://www.w3.org/1999/xlink">
    <!-- Generator: Sketch 48.2 (47327) - http://www.bohemiancoding.com/sketch -->
    <title>close</title>
    <desc>Created with Sketch.</desc>
    <defs></defs>
    <g id="Page-1" stroke="none" stroke-width="1" fill="none" fill-rule="evenodd">
        <g id="close" fill="#4A4A4A">
            <path d="M34.1796875,29.4921875 C34.7265652,30.0390652 35,30.6982383 35,31.4697266 C35,32.2412148 34.7265652,32.9003879 34.1796875,33.4472656 L33.4472656,34.1796875 C32.9003879,34.7265652 32.2412148,35 31.4697266,35 C30.6982383,35 30.0390652,34.7265652 29.4921875,34.1796875 L20,24.6875 L10.5078125,34.1796875 C9.96093477,34.7265652 9.30176167,35 8.53027344,35 C7.75878521,35 7.09961211,34.7265652 6.55273438,34.1796875 L5.8203125,33.4472656 C5.27343477,32.9003879 5,32.2412148 5,31.4697266 C5,30.6982383 5.27343477,30.0390652 5.8203125,29.4921875 L15.3125,20 L5.8203125,10.5078125 C5.27343477,9.96093477 5,9.30176167 5,8.53027344 C5,7.75878521 5.27343477,7.09961211 5.8203125,6.55273438 L6.55273438,5.8203125 C7.09961211,5.27343477 7.75878521,5 8.53027344,5 C9.30176167,5 9.96093477,5.27343477 10.5078125,5.8203125 L20,15.3125 L29.4921875,5.8203125 C30.0390652,5.27343477 30.6982383,5 31.4697266,5 C32.2412148,5 32.9003879,5.27343477 33.4472656,5.8203125 L34.1796875,6.55273438 C34.7265652,7.09961211 35,7.75878521 35,8.53027344 C35,9.30176167 34.7265652,9.96093477 34.1796875,10.5078125 L24.6875,20 L34.1796875,29.4921875 Z" id="î¤"></path>
        </g>
    </g>
</svg>