<?xml version="1.0" encoding="UTF-8" standalone="no"?>
<svg width="40px" height="40px" viewBox="0 0 40 40" version="1.1" xmlns="http://www.w3.org/2000/svg" xmlns:xlink="http://www.w3.org/1999/xlink">
    <!-- Generator: Sketch 48.2 (47327) - http://www.bohemiancoding.com/sketch -->
    <title>correct</title>
    <desc>Created with Sketch.</desc>
    <defs></defs>
    <g id="Page-1" stroke="none" stroke-width="1" fill="none" fill-rule="evenodd">
        <g id="correct" fill="#4A4A4A">
            <path d="M16.46875,33.8632812 C16.0234353,34.308596 15.5019561,34.53125 14.9042969,34.53125 C14.3066376,34.53125 13.7851585,34.308596 13.3398438,33.8632812 L1.66796875,22.1914062 C1.22265402,21.7460915 1,21.2246124 1,20.6269531 C1,20.0292939 1.22265402,19.5078147 1.66796875,19.0625 L4.65625,16.0742188 C5.07812711,15.6523416 5.59374695,15.4414062 6.203125,15.4414062 C6.81250305,15.4414062 7.32812289,15.6523416 7.75,16.0742188 L14.921875,23.2460938 L32.5,5.6328125 C32.9453147,5.21093539 33.4667939,5 34.0644531,5 C34.6621124,5 35.1718729,5.21093539 35.59375,5.6328125 L38.5820312,8.62109375 C39.027346,9.06640848 39.25,9.58788764 39.25,10.1855469 C39.25,10.7832061 39.027346,11.3046853 38.5820312,11.75 L16.46875,33.8632812 Z" id=""></path>
        </g>
    </g>
</svg>