<?xml version="1.0" encoding="UTF-8" standalone="no"?>
<svg width="40px" height="40px" viewBox="0 0 40 40" version="1.1" xmlns="http://www.w3.org/2000/svg" xmlns:xlink="http://www.w3.org/1999/xlink">
    <!-- Generator: Sketch 48.2 (47327) - http://www.bohemiancoding.com/sketch -->
    <title>incorrect</title>
    <desc>Created with Sketch.</desc>
    <defs></defs>
    <g id="Page-1" stroke="none" stroke-width="1" fill="none" fill-rule="evenodd">
        <g id="incorrect" fill="#4A4A4A">
            <path d="M33.5178888,28.3393112 C33.5178888,28.8973475 33.2946742,29.4553839 32.892888,29.8571701 L29.8571701,32.892888 C29.4553839,33.2946742 28.8973475,33.5178888 28.3393112,33.5178888 C27.7812748,33.5178888 27.2232384,33.2946742 26.8214522,32.892888 L20.2589444,26.3303802 L13.6964366,32.892888 C13.2946504,33.2946742 12.736614,33.5178888 12.1785776,33.5178888 C11.6205412,33.5178888 11.0625048,33.2946742 10.6607186,32.892888 L7.62500075,29.8571701 C7.22321455,29.4553839 7,28.8973475 7,28.3393112 C7,27.7812748 7.22321455,27.2232384 7.62500075,26.8214522 L14.1875086,20.2589444 L7.62500075,13.6964366 C7.22321455,13.2946504 7,12.736614 7,12.1785776 C7,11.6205412 7.22321455,11.0625048 7.62500075,10.6607186 L10.6607186,7.62500075 C11.0625048,7.22321455 11.6205412,7 12.1785776,7 C12.736614,7 13.2946504,7.22321455 13.6964366,7.62500075 L20.2589444,14.1875086 L26.8214522,7.62500075 C27.2232384,7.22321455 27.7812748,7 28.3393112,7 C28.8973475,7 29.4553839,7.22321455 29.8571701,7.62500075 L32.892888,10.6607186 C33.2946742,11.0625048 33.5178888,11.6205412 33.5178888,12.1785776 C33.5178888,12.736614 33.2946742,13.2946504 32.892888,13.6964366 L26.3303802,20.2589444 L32.892888,26.8214522 C33.2946742,27.2232384 33.5178888,27.7812748 33.5178888,28.3393112 Z" id="ï€"></path>
        </g>
    </g>
</svg>