<?xml version="1.0" encoding="UTF-8" standalone="no"?>
<svg width="40px" height="40px" viewBox="0 0 40 40" version="1.1" xmlns="http://www.w3.org/2000/svg" xmlns:xlink="http://www.w3.org/1999/xlink">
    <!-- Generator: Sketch 48.2 (47327) - http://www.bohemiancoding.com/sketch -->
    <title>left</title>
    <desc>Created with Sketch.</desc>
    <defs></defs>
    <g id="Page-1" stroke="none" stroke-width="1" fill="none" fill-rule="evenodd">
        <g id="left" fill="#4A4A4A">
            <path d="M34.3300781,21.2011719 C34.3300781,21.8652377 34.1298848,22.4414038 33.7294922,22.9296875 C33.3290996,23.4179712 32.7773473,23.6621094 32.0742188,23.6621094 L18.5097656,23.6621094 L24.1640625,29.3457031 C24.3984387,29.5605479 24.5791009,29.8193344 24.7060547,30.1220703 C24.8330084,30.4248062 24.8964844,30.7421858 24.8964844,31.0742188 C24.8964844,31.4062517 24.8330084,31.7236313 24.7060547,32.0263672 C24.5791009,32.3291031 24.3984387,32.5878896 24.1640625,32.8027344 L22.7285156,34.2675781 C22.5136708,34.5019543 22.2548843,34.6826166 21.9521484,34.8095703 C21.6494125,34.9365241 21.3320329,35 21,35 C20.6679671,35 20.3505875,34.9365241 20.0478516,34.8095703 C19.7451157,34.6826166 19.4765637,34.5019543 19.2421875,34.2675781 L6.703125,21.7285156 C6.48828018,21.4941395 6.31738345,21.2255875 6.19042969,20.9228516 C6.06347593,20.6201157 6,20.3125016 6,20 C6,19.6679671 6.06347593,19.3457047 6.19042969,19.0332031 C6.31738345,18.7207016 6.48828018,18.4570323 6.703125,18.2421875 L19.2421875,5.73242188 C19.4765637,5.4980457 19.7451157,5.31738345 20.0478516,5.19042969 C20.3505875,5.06347593 20.6679671,5 21,5 C21.3320329,5 21.6445298,5.06347593 21.9375,5.19042969 C22.2304702,5.31738345 22.4941395,5.4980457 22.7285156,5.73242188 L24.1640625,7.13867188 C24.3984387,7.37304805 24.5791009,7.64160005 24.7060547,7.94433594 C24.8330084,8.24707183 24.8964844,8.56445146 24.8964844,8.89648438 C24.8964844,9.22851729 24.8330084,9.54589692 24.7060547,9.84863281 C24.5791009,10.1513687 24.3984387,10.4199207 24.1640625,10.6542969 L18.5097656,16.3085938 L32.0742188,16.3085938 C32.7773473,16.3085938 33.3290996,16.5527319 33.7294922,17.0410156 C34.1298848,17.5292993 34.3300781,18.1054654 34.3300781,18.7695312 L34.3300781,21.2011719 Z" id=""></path>
        </g>
    </g>
</svg>