<?xml version="1.0" encoding="UTF-8" standalone="no"?>
<svg width="40px" height="40px" viewBox="0 0 40 40" version="1.1" xmlns="http://www.w3.org/2000/svg" xmlns:xlink="http://www.w3.org/1999/xlink">
    <!-- Generator: Sketch 48.2 (47327) - http://www.bohemiancoding.com/sketch -->
    <title>locked</title>
    <desc>Created with Sketch.</desc>
    <defs></defs>
    <g id="Page-1" stroke="none" stroke-width="1" fill="none" fill-rule="evenodd">
        <g id="locked" fill="#4A4A4A">
            <path d="M14.8181818,18.6363636 L25.7272727,18.6363636 L25.7272727,14.5454545 C25.7272727,11.5411932 23.2769886,9.09090909 20.2727273,9.09090909 C17.2684659,9.09090909 14.8181818,11.5411932 14.8181818,14.5454545 L14.8181818,18.6363636 Z M32.5454545,20.6818182 L32.5454545,32.9545455 C32.5454545,34.0838068 31.6292614,35 30.5,35 L10.0454545,35 C8.91619318,35 8,34.0838068 8,32.9545455 L8,20.6818182 C8,19.5525568 8.91619318,18.6363636 10.0454545,18.6363636 L10.7272727,18.6363636 L10.7272727,14.5454545 C10.7272727,9.30397727 15.03125,5 20.2727273,5 C25.5142045,5 29.8181818,9.30397727 29.8181818,14.5454545 L29.8181818,18.6363636 L30.5,18.6363636 C31.6292614,18.6363636 32.5454545,19.5525568 32.5454545,20.6818182 Z" id=""></path>
        </g>
    </g>
</svg>