<?xml version="1.0" encoding="UTF-8" standalone="no"?>
<svg width="40px" height="40px" viewBox="0 0 40 40" version="1.1" xmlns="http://www.w3.org/2000/svg" xmlns:xlink="http://www.w3.org/1999/xlink">
    <!-- Generator: Sketch 48.2 (47327) - http://www.bohemiancoding.com/sketch -->
    <title>right</title>
    <desc>Created with Sketch.</desc>
    <defs></defs>
    <g id="Page-1" stroke="none" stroke-width="1" fill="none" fill-rule="evenodd">
        <g id="right" fill="#4A4A4A">
            <path d="M6,18.7988281 C6,18.1347623 6.20507607,17.5585962 6.61523438,17.0703125 C7.02539268,16.5820288 7.57226221,16.3378906 8.25585938,16.3378906 L21.8203125,16.3378906 L16.1660156,10.6542969 C15.9316395,10.4394521 15.7509772,10.1806656 15.6240234,9.87792969 C15.4970697,9.5751938 15.4335938,9.25781416 15.4335938,8.92578125 C15.4335938,8.59374834 15.4970697,8.2763687 15.6240234,7.97363281 C15.7509772,7.67089692 15.9316395,7.41211045 16.1660156,7.19726562 L17.6015625,5.73242188 C17.8359387,5.4980457 18.1044907,5.31738345 18.4072266,5.19042969 C18.7099625,5.06347593 19.0273421,5 19.359375,5 C19.6718766,5 19.9843734,5.06347593 20.296875,5.19042969 C20.6093766,5.31738345 20.8730458,5.4980457 21.0878906,5.73242188 L33.6269531,18.2714844 C33.8417979,18.5058605 34.0126947,18.7744125 34.1396484,19.0771484 C34.2666022,19.3798843 34.3300781,19.6874984 34.3300781,20 C34.3300781,20.3320329 34.2666022,20.6542953 34.1396484,20.9667969 C34.0126947,21.2792984 33.8417979,21.5429677 33.6269531,21.7578125 L21.0878906,34.2675781 C20.8730458,34.5019543 20.6093766,34.6826166 20.296875,34.8095703 C19.9843734,34.9365241 19.6718766,35 19.359375,35 C19.0273421,35 18.7099625,34.9365241 18.4072266,34.8095703 C18.1044907,34.6826166 17.8359387,34.5019543 17.6015625,34.2675781 L16.1660156,32.8613281 C15.9316395,32.626952 15.7509772,32.3584 15.6240234,32.0556641 C15.4970697,31.7529282 15.4335938,31.4355485 15.4335938,31.1035156 C15.4335938,30.7714827 15.4970697,30.4541031 15.6240234,30.1513672 C15.7509772,29.8486313 15.9316395,29.5800793 16.1660156,29.3457031 L21.8203125,23.6914062 L8.25585938,23.6914062 C7.57226221,23.6914062 7.02539268,23.4472681 6.61523438,22.9589844 C6.20507607,22.4707007 6,21.8945346 6,21.2304688 L6,18.7988281 Z" id=""></path>
        </g>
    </g>
</svg>