<?xml version="1.0" encoding="UTF-8"?>
<svg width="40px" height="40px" viewBox="0 0 40 40" version="1.1" xmlns="http://www.w3.org/2000/svg" xmlns:xlink="http://www.w3.org/1999/xlink">
    <!-- Generator: Sketch 49.2 (51160) - http://www.bohemiancoding.com/sketch -->
    <title>x</title>
    <desc>Created with Sketch.</desc>
    <defs>
        <path d="M33.518,28.339 C33.518,28.897 33.295,29.455 32.893,29.857 L29.857,32.893 C29.456,33.294 28.897,33.518 28.339,33.518 C27.781,33.518 27.223,33.294 26.822,32.893 L20.259,26.33 L13.697,32.893 C13.295,33.294 12.737,33.518 12.179,33.518 C11.621,33.518 11.063,33.294 10.661,32.893 L7.625,29.857 C7.223,29.455 7,28.897 7,28.339 C7,27.781 7.223,27.223 7.625,26.821 L14.188,20.259 L7.625,13.696 C7.223,13.294 7,12.736 7,12.178 C7,11.62 7.223,11.062 7.625,10.66 L10.661,7.625 C11.063,7.223 11.621,7 12.179,7 C12.737,7 13.295,7.223 13.697,7.625 L20.259,14.187 L26.822,7.625 C27.223,7.223 27.781,7 28.339,7 C28.897,7 29.456,7.223 29.857,7.625 L32.893,10.66 C33.295,11.062 33.518,11.62 33.518,12.178 C33.518,12.736 33.295,13.294 32.893,13.696 L26.331,20.259 L32.893,26.821 C33.295,27.223 33.518,27.781 33.518,28.339 Z" id="path-1"></path>
    </defs>
    <g id="x" stroke="none" stroke-width="1" fill="none" fill-rule="evenodd">
        <g id="Fill-1">
            <use fill="#CC333F" fill-rule="evenodd" xlink:href="#path-1"></use>
            <path stroke="#FFFFFF" stroke-width="2" d="M25.6236761,19.5521104 L25.6238393,19.5519471 L25.6240026,19.5517838 Z M20.2590538,27.7442674 L14.4032257,33.6009868 C13.8163344,34.1864182 13.0055406,34.518 12.179,34.518 C11.3524594,34.518 10.5416656,34.1864182 9.95389322,33.6001068 L6.91789322,30.5641068 C6.33126212,29.9774757 6,29.1665085 6,28.339 C6,27.5114915 6.33126212,26.7005243 6.9179471,26.1138393 L12.7737326,20.2589461 L6.91789322,14.4031068 C6.33126212,13.8164757 6,13.0055085 6,12.178 C6,11.3504915 6.33126212,10.5395243 6.9180097,9.95277676 L9.95389322,6.91789322 C10.5405243,6.33126212 11.3514915,6 12.179,6 C13.0065085,6 13.8174757,6.33126212 14.4041068,6.91789322 L20.2590539,12.7728404 L26.1140132,6.91877435 C26.6997559,6.33157095 27.5110881,6 28.339,6 C29.1670309,6 29.9793121,6.33163913 30.5639903,6.91777676 L33.6001068,9.95289322 C34.1867379,10.5395243 34.518,11.3504915 34.518,12.178 C34.518,13.0055085 34.1867379,13.8164757 33.6001607,14.4030529 L27.7451597,20.2589461 L33.6001068,26.1138932 C34.1867379,26.7005243 34.518,27.5114915 34.518,28.339 C34.518,29.1665085 34.1867379,29.9774757 33.6001068,30.5641068 L30.5641068,33.6001068 C29.9781756,34.186038 29.1660612,34.518 28.339,34.518 C27.5120562,34.518 26.7008941,34.1861076 26.1148932,33.6001068 L20.2590538,27.7442674 Z"></path>
        </g>
    </g>
</svg>